<svg width="1438" height="686" viewBox="0 0 1438 686" fill="none" xmlns="http://www.w3.org/2000/svg">
<path d="M81.1895 326.3C50.0247 333.27 0.996216 342.288 0.996216 342.288H1437V134.44H1422.06C1409.03 134.44 1401.67 133.231 1388.69 134.44C1369.8 136.199 1359.68 140.478 1341.37 145.432C1320.1 151.183 1308.95 157.075 1287.58 162.419C1267.22 167.51 1255.5 169.094 1234.78 172.412C1207.88 176.719 1192.5 177.012 1165.54 180.906C1142.72 184.201 1129.74 185.242 1107.27 190.399C1084.11 195.712 1071.98 201.888 1048.99 207.886C1030.45 212.724 1020 215.357 1001.17 218.878C980.51 222.741 968.541 222.537 947.875 226.373C921.895 231.194 907.953 236.775 882.126 242.361C856.58 247.886 842.208 250.876 816.378 254.852C781.577 260.208 726.72 264.345 726.72 264.345C726.72 264.345 673.832 266.466 640.052 264.345C609.157 262.405 561.353 254.852 561.353 254.852C561.353 254.852 529.903 249.558 509.551 248.357C491.298 247.279 481.015 248.357 462.73 248.357C446.974 248.357 435.454 246.233 422.384 248.357C404.163 251.317 404.453 248.357 404.453 248.357C380.147 249.759 344.184 264.345 344.184 264.345C344.184 264.345 314.785 272.745 295.868 277.835C273.951 283.733 261.76 287.496 239.584 292.324C212.208 298.284 168.854 304.316 168.854 304.316C168.854 304.316 115.633 318.597 81.1895 326.3Z" fill="url(#paint0_linear)" style="mix-blend-mode:soft-light"/>
<path d="M2.98853 343.25L71.2275 337.254L126.018 333.257C155.048 327.767 181.805 326.762 181.805 326.762L257.515 316.27L338.705 294.785L413.419 251.317L469.703 212.345C469.703 212.345 507.514 194.658 528.479 187.863C549.444 181.068 561.418 177.198 583.269 174.373C608.156 171.155 622.55 171.92 647.523 174.373C673.796 176.953 688.031 181.981 713.77 187.863C749.661 196.065 769.787 201.838 804.686 211.849L806.416 212.345C835.937 220.813 851.767 228.159 881.628 235.328C909.31 241.975 925.03 245.489 953.354 248.319C988.775 251.858 1009.57 255.179 1044.51 248.319C1080.37 241.276 1099.23 230.534 1130.96 212.468L1131.17 212.345C1170.43 189.989 1186.3 168.342 1221.83 140.398C1254.99 114.313 1272.58 98.3311 1307 73.9461C1339.31 51.0592 1356.61 36.3497 1392.18 18.9862C1409.42 10.5646 1437.5 0 1437.5 0V343.25H2.98853Z" fill="url(#paint1_linear)" style="mix-blend-mode:overlay"/>
<path d="M1398.65 95.9301C1414.22 92.857 1438.5 87.9359 1438.5 87.9359V357.24H5.97705C5.97705 357.24 62.4362 346.995 98.1246 338.253C123.979 331.92 138.734 329.029 163.873 320.267C204.801 306.001 224.023 289.085 263.99 272.302C293.517 259.902 309.721 251.416 340.697 243.323C374.345 234.531 394.144 232.805 428.86 230.832L431.081 230.705C453.221 229.443 466.445 228.689 489.129 230.832C514.196 233.2 527.812 237.832 552.387 243.323C576.057 248.611 589.12 252.46 612.657 258.312C634.637 263.777 646.727 267.889 668.941 272.302C689.019 276.29 698.789 277.237 719.249 277.798C744.139 278.48 759.445 276.43 784.001 272.302C809.888 267.949 824.024 263.537 849.75 258.312C880.223 252.123 897.759 250.774 927.951 243.323C955.74 236.464 970.844 230.828 998.182 222.338C1026.09 213.669 1041.77 208.868 1069.41 199.355C1103.35 187.672 1122.25 180.696 1155.58 167.378C1179.88 157.669 1192.68 150.133 1217.34 141.397C1247.78 130.615 1265.84 127.721 1297.04 119.413C1319.57 113.414 1332.06 109.468 1354.82 104.424C1371.84 100.651 1381.54 99.3061 1398.65 95.9301Z" fill="url(#paint2_linear)" style="mix-blend-mode:overlay"/>
<path d="M82.1857 358.739C51.0209 351.769 1.99243 342.75 1.99243 342.75H1438V550.599H1423.06C1410.02 550.599 1402.66 551.807 1389.68 550.599C1370.8 548.84 1360.68 544.561 1342.37 539.607C1321.1 533.855 1309.94 527.963 1288.57 522.619C1268.21 517.528 1256.49 515.944 1235.77 512.626C1208.87 508.319 1193.5 508.026 1166.54 504.133C1143.72 500.837 1130.74 499.796 1108.26 494.639C1085.1 489.326 1072.97 483.151 1049.98 477.152C1031.44 472.315 1021 469.681 1002.17 466.16C981.506 462.297 969.537 462.501 948.871 458.666C922.892 453.844 908.949 448.263 883.122 442.677C857.577 437.152 843.204 434.162 817.374 430.186C782.573 424.831 727.717 420.693 727.717 420.693C727.717 420.693 674.828 418.572 641.048 420.693C610.153 422.633 562.349 430.186 562.349 430.186C562.349 430.186 530.899 435.48 510.547 436.682C492.294 437.759 482.011 436.682 463.726 436.682C447.97 436.682 436.45 438.806 423.381 436.682C405.16 433.721 405.449 436.682 405.449 436.682C381.144 435.279 345.18 420.693 345.18 420.693C345.18 420.693 315.781 412.294 296.865 407.203C274.947 401.305 262.756 397.542 240.58 392.714C213.204 386.754 169.85 380.723 169.85 380.723C169.85 380.723 116.629 366.442 82.1857 358.739Z" fill="url(#paint3_linear)" style="mix-blend-mode:soft-light"/>
<path d="M1.99243 342.75L70.2314 348.746L125.022 352.743C154.052 358.233 180.809 359.238 180.809 359.238L256.519 369.73L337.708 391.215L412.423 434.683L468.707 473.655C468.707 473.655 506.518 491.342 527.483 498.137C548.447 504.932 560.422 508.802 582.273 511.627C607.16 514.845 621.554 514.08 646.527 511.627C672.8 509.047 687.035 504.019 712.774 498.137C748.665 489.935 768.79 484.162 803.69 474.151L805.419 473.655C834.941 465.187 850.77 457.841 880.632 450.672C908.313 444.025 924.034 440.511 952.357 437.681C987.779 434.142 1008.58 430.821 1043.51 437.681C1079.37 444.724 1098.24 455.466 1129.96 473.532L1130.18 473.655C1169.44 496.011 1185.31 517.658 1220.83 545.602C1253.99 571.687 1271.58 587.669 1306 612.054C1338.31 634.941 1355.62 649.65 1391.18 667.014C1408.43 675.435 1436.51 686 1436.51 686V342.75H1.99243Z" fill="url(#paint4_linear)" style="mix-blend-mode:overlay"/>
<path d="M1394.67 603.31C1410.24 606.383 1434.52 611.304 1434.52 611.304V342H2C2 342 58.4591 352.244 94.1476 360.986C120.002 367.319 134.756 370.21 159.896 378.973C200.824 393.239 220.046 410.154 260.013 426.938C289.54 439.337 305.744 447.823 336.72 455.917C370.368 464.709 390.167 466.434 424.883 468.408L427.104 468.534C449.244 469.797 462.468 470.551 485.152 468.408C510.219 466.04 523.834 461.408 548.41 455.917C572.079 450.629 585.143 446.78 608.68 440.928C630.66 435.463 642.75 431.351 664.964 426.938C685.042 422.95 694.812 422.003 715.272 421.442C740.162 420.76 755.468 422.809 780.024 426.938C805.911 431.29 820.047 435.703 845.773 440.928C876.246 447.117 893.782 448.466 923.974 455.917C951.763 462.775 966.867 468.411 994.205 476.902C1022.12 485.57 1037.79 490.371 1065.43 499.885C1099.37 511.567 1118.27 518.543 1151.6 531.862C1175.9 541.57 1188.7 549.106 1213.37 557.843C1243.8 568.624 1261.86 571.519 1293.06 579.827C1315.59 585.825 1328.08 589.772 1350.84 594.816C1367.86 598.589 1377.57 599.934 1394.67 603.31Z" fill="url(#paint5_linear)" style="mix-blend-mode:overlay"/>
<line x1="3.98474" y1="342.25" x2="1436.51" y2="342.25" stroke="white" style="mix-blend-mode:overlay"/>
<defs>
<linearGradient id="paint0_linear" x1="762.583" y1="316.307" x2="762.583" y2="39.0091" gradientUnits="userSpaceOnUse">
<stop stop-color="white"/>
<stop offset="0.229167" stop-color="white" stop-opacity="0"/>
</linearGradient>
<linearGradient id="paint1_linear" x1="720.245" y1="0" x2="720.245" y2="343.25" gradientUnits="userSpaceOnUse">
<stop offset="0.489583" stop-color="#CFC3F4"/>
<stop offset="1" stop-color="#CFC3F4" stop-opacity="0"/>
</linearGradient>
<linearGradient id="paint2_linear" x1="722.238" y1="87.9359" x2="722.238" y2="357.24" gradientUnits="userSpaceOnUse">
<stop stop-color="#CFC3F4"/>
<stop offset="0.590416" stop-color="#CFC3F4" stop-opacity="0.439843"/>
<stop offset="0.87264" stop-color="#CFC3F4" stop-opacity="0"/>
</linearGradient>
<linearGradient id="paint3_linear" x1="763.58" y1="368.731" x2="763.58" y2="646.029" gradientUnits="userSpaceOnUse">
<stop stop-color="white"/>
<stop offset="0.229167" stop-color="white" stop-opacity="0"/>
</linearGradient>
<linearGradient id="paint4_linear" x1="719.249" y1="686" x2="719.249" y2="342.75" gradientUnits="userSpaceOnUse">
<stop offset="0.489583" stop-color="#CFC3F4"/>
<stop offset="1" stop-color="#CFC3F4" stop-opacity="0"/>
</linearGradient>
<linearGradient id="paint5_linear" x1="718.26" y1="611.304" x2="718.26" y2="342" gradientUnits="userSpaceOnUse">
<stop stop-color="#CFC3F4"/>
<stop offset="0.590416" stop-color="#CFC3F4" stop-opacity="0.439843"/>
<stop offset="0.87264" stop-color="#CFC3F4" stop-opacity="0"/>
</linearGradient>
</defs>
</svg>
